<svg xmlns="http://www.w3.org/2000/svg" xmlns:xlink="http://www.w3.org/1999/xlink" x="0px" y="0px" viewBox="0 0 504 629.8199999999999" style="enable-background:new 0 0 504 503.856;" xml:space="preserve">
  <path d="M502.548,461.299L399.151,375.87l64.673-78.838c0.779-0.951,1.079-2.207,0.812-3.407s-1.072-2.211-2.182-2.74   l-33.332-15.903l-21.955-29.777c-0.732-0.993-1.883-1.593-3.116-1.625c-1.268-0.019-2.413,0.509-3.196,1.462l-23.75,28.952   L46.596,0.916c-1.082-0.894-2.553-1.154-3.876-0.689c-1.323,0.466-2.306,1.591-2.589,2.965L0.083,197.183   c-0.3,1.451,0.227,2.948,1.369,3.893l259.551,214.449l-23.768,28.974c-0.779,0.951-1.079,2.207-0.812,3.407s1.072,2.211,2.182,2.74   l33.332,15.904l21.955,29.777c0.732,0.993,1.883,1.593,3.116,1.625c1.295,0.077,2.368-0.392,3.196-1.462l64.654-78.816   l103.375,85.411c1.9,1.125,3.782,1.083,5.641-0.547l29.218-35.617C504.49,465.216,504.247,462.703,502.548,461.299z    M372.03,280.179l-82.578,100.666L59.65,190.977L48.611,12.959L372.03,280.179z M246.659,445.624l157.12-191.534l17.65,23.939   L273.457,458.411L246.659,445.624z M369.933,411.487l24.144-29.432l26.967,22.281l-41.74,14.894L369.933,411.487z M414.876,448.62   l41.74-14.894l21.211,17.525l-41.739,14.895L414.876,448.62z"/>
  <path d="M110.691,89.728c-4.615-3.812-10.438-5.597-16.389-5.019c-5.958,0.577-11.332,3.448-15.135,8.083   c-7.838,9.556-6.468,23.729,3.054,31.598c4.047,3.343,9.019,5.125,14.194,5.125c6.98,0.352,12.663-2.619,17.329-8.189   C121.583,111.77,120.213,97.597,110.691,89.728z"/>

  <style>
      path { fill: #000; }
      @media (prefers-color-scheme: dark) {
          path { fill: #FFF; }
      }
  </style>
</svg>