<svg xmlns="http://www.w3.org/2000/svg" viewBox="100 150 150 250">
  <path id="Path"
        fill="none" stroke="black" stroke-width="1" opacity="0.05"
        d="M 152.77,315.36
           C 229.84,278.14 252.00,249.33 252.00,229.39
             252.00,216.53 243.14,209.00 228.97,209.00
             205.48,209.00 171.38,227.17 134.61,264.39
             134.61,264.39 107.58,404.00 107.58,404.00
             107.58,404.00 81.89,404.00 81.89,404.00
             81.89,404.00 141.69,95.22 141.69,95.22
             141.69,95.22 168.27,93.00 168.27,93.00
             168.27,93.00 139.48,240.02 139.48,240.02
             175.36,203.48 212.58,185.00 240.92,185.00
             265.95,185.00 280.00,199.03 280.00,219.64
             280.00,248.44 253.08,281.69 185.11,315.36
             185.11,315.36 269.50,401.78 269.50,401.78
             269.50,401.78 239.44,406.00 239.44,406.00
             239.44,406.00 152.77,315.36 152.77,315.36 Z"/>
</svg>
